<mxfile host="Electron" modified="2024-01-16T21:48:34.316Z" agent="Mozilla/5.0 (Windows NT 10.0; Win64; x64) AppleWebKit/537.36 (KHTML, like Gecko) draw.io/22.1.18 Chrome/120.0.6099.199 Electron/28.1.2 Safari/537.36" etag="PYDgApZ2h6UaYSSozIIp" version="22.1.18" type="device">
  <diagram name="PÃ¡gina-1" id="xRN2nSGi-ZnUHKBFFUzP">
    <mxGraphModel dx="1036" dy="606" grid="1" gridSize="10" guides="1" tooltips="1" connect="1" arrows="1" fold="1" page="1" pageScale="1" pageWidth="827" pageHeight="1169" math="0" shadow="0">
      <root>
        <mxCell id="0" />
        <mxCell id="1" parent="0" />
        <mxCell id="VdE1JP612rKM6PPvekpZ-1" value="Carro" style="swimlane;fontStyle=1;align=center;verticalAlign=top;childLayout=stackLayout;horizontal=1;startSize=26;horizontalStack=0;resizeParent=1;resizeParentMax=0;resizeLast=0;collapsible=1;marginBottom=0;whiteSpace=wrap;html=1;" vertex="1" parent="1">
          <mxGeometry x="330" y="270" width="160" height="270" as="geometry">
            <mxRectangle x="330" y="270" width="70" height="30" as="alternateBounds" />
          </mxGeometry>
        </mxCell>
        <mxCell id="VdE1JP612rKM6PPvekpZ-2" value="- rueda: int&lt;br&gt;- ventana: int&lt;br&gt;- marca: String&lt;br&gt;+ nombre: String" style="text;strokeColor=none;fillColor=none;align=left;verticalAlign=top;spacingLeft=4;spacingRight=4;overflow=hidden;rotatable=0;points=[[0,0.5],[1,0.5]];portConstraint=eastwest;whiteSpace=wrap;html=1;" vertex="1" parent="VdE1JP612rKM6PPvekpZ-1">
          <mxGeometry y="26" width="160" height="84" as="geometry" />
        </mxCell>
        <mxCell id="VdE1JP612rKM6PPvekpZ-3" value="" style="line;strokeWidth=1;fillColor=none;align=left;verticalAlign=middle;spacingTop=-1;spacingLeft=3;spacingRight=3;rotatable=0;labelPosition=right;points=[];portConstraint=eastwest;strokeColor=inherit;" vertex="1" parent="VdE1JP612rKM6PPvekpZ-1">
          <mxGeometry y="110" width="160" height="8" as="geometry" />
        </mxCell>
        <mxCell id="VdE1JP612rKM6PPvekpZ-4" value="+ getRueda() :int&lt;br&gt;+ setRueda(rueda:int)&lt;br&gt;+getVentana(): int&lt;br&gt;+ setVentana(ventana:int)&lt;br&gt;+ getMarca(): String&lt;br&gt;+ setMarca( marca: String )&lt;br&gt;+ getNombre(): String&lt;br&gt;+setNombre(nombre:String)" style="text;strokeColor=none;fillColor=none;align=left;verticalAlign=top;spacingLeft=4;spacingRight=4;overflow=hidden;rotatable=0;points=[[0,0.5],[1,0.5]];portConstraint=eastwest;whiteSpace=wrap;html=1;" vertex="1" parent="VdE1JP612rKM6PPvekpZ-1">
          <mxGeometry y="118" width="160" height="152" as="geometry" />
        </mxCell>
      </root>
    </mxGraphModel>
  </diagram>
</mxfile>
